<svg width="1574" height="74" viewBox="0 0 1574 74" fill="none" xmlns="http://www.w3.org/2000/svg">
<rect width="94.6667" height="74" rx="12" fill="#868686" fill-opacity="0.1"/>
<path d="M47.3333 48C48.35 48 49.325 47.5786 50.0439 46.8284C50.7628 46.0783 51.1667 45.0609 51.1667 44C51.1667 41.78 49.4417 40 47.3333 40C46.3167 40 45.3416 40.4214 44.6228 41.1716C43.9039 41.9217 43.5 42.9391 43.5 44C43.5 45.0609 43.9039 46.0783 44.6228 46.8284C45.3416 47.5786 46.3167 48 47.3333 48ZM58.8333 30C59.85 30 60.825 30.4214 61.5439 31.1716C62.2628 31.9217 62.6667 32.9391 62.6667 34V54C62.6667 55.0609 62.2628 56.0783 61.5439 56.8284C60.825 57.5786 59.85 58 58.8333 58H35.8333C34.8167 58 33.8416 57.5786 33.1228 56.8284C32.4039 56.0783 32 55.0609 32 54V34C32 31.78 33.725 30 35.8333 30H37.75V26C37.75 23.3478 38.7597 20.8043 40.5569 18.9289C42.3541 17.0536 44.7917 16 47.3333 16C48.5918 16 49.838 16.2587 51.0007 16.7612C52.1634 17.2638 53.2199 18.0003 54.1098 18.9289C54.9997 19.8575 55.7056 20.9599 56.1872 22.1732C56.6688 23.3864 56.9167 24.6868 56.9167 26V30H58.8333ZM47.3333 20C45.8083 20 44.3458 20.6321 43.2675 21.7574C42.1891 22.8826 41.5833 24.4087 41.5833 26V30H53.0833V26C53.0833 24.4087 52.4775 22.8826 51.3992 21.7574C50.3209 20.6321 48.8583 20 47.3333 20Z" fill="#3A3A3A"/>
<path d="M144.892 23.965L147.153 21.476V33.446L145.975 31.945H156.463V35.935H145.975L147.153 34.453V46.499L144.892 44.01H158.572V48H142.118V19.975H158.572V23.965H144.892ZM171.911 48.38C170.48 48.38 169.289 48.1393 168.339 47.658C167.402 47.1767 166.661 46.5433 166.116 45.758C165.584 44.9727 165.204 44.105 164.976 43.155C164.761 42.205 164.653 41.255 164.653 40.305C164.653 39.8363 164.653 39.3487 164.653 38.842C164.653 38.3353 164.653 37.8223 164.653 37.303V27.822H169.669V36.524C169.669 36.98 169.669 37.417 169.669 37.835C169.669 38.253 169.669 38.6457 169.669 39.013C169.669 39.9123 169.777 40.7483 169.992 41.521C170.207 42.281 170.6 42.8953 171.17 43.364C171.753 43.8327 172.57 44.067 173.621 44.067C174.622 44.067 175.483 43.7757 176.205 43.193C176.927 42.5977 177.484 41.8503 177.877 40.951C178.282 40.0517 178.485 39.1397 178.485 38.215L180.195 39.355C180.195 40.5837 180.005 41.7427 179.625 42.832C179.245 43.9087 178.694 44.865 177.972 45.701C177.25 46.537 176.376 47.1957 175.35 47.677C174.337 48.1457 173.19 48.38 171.911 48.38ZM178.485 48V27.822H183.482V48H178.485ZM189.432 48V27.822H194.429V34.529L193.27 33.883C193.396 33.009 193.631 32.1857 193.973 31.413C194.315 30.6277 194.771 29.9437 195.341 29.361C195.911 28.7657 196.601 28.3033 197.412 27.974C198.222 27.6447 199.147 27.48 200.186 27.48C201.009 27.48 201.655 27.5433 202.124 27.67C202.605 27.784 202.903 27.879 203.017 27.955L202.105 32.534C201.978 32.4453 201.718 32.3377 201.326 32.211C200.946 32.0717 200.433 32.002 199.787 32.002C198.761 32.002 197.899 32.1793 197.203 32.534C196.519 32.876 195.974 33.3447 195.569 33.94C195.163 34.5227 194.872 35.1687 194.695 35.878C194.517 36.5747 194.429 37.2713 194.429 37.968V48H189.432ZM216.855 48.399C214.727 48.399 212.852 47.9557 211.231 47.069C209.609 46.1697 208.336 44.9283 207.412 43.345C206.5 41.7617 206.044 39.9503 206.044 37.911C206.044 35.859 206.5 34.054 207.412 32.496C208.336 30.9253 209.609 29.6967 211.231 28.81C212.852 27.9233 214.727 27.48 216.855 27.48C218.983 27.48 220.857 27.9233 222.479 28.81C224.1 29.6967 225.367 30.9253 226.279 32.496C227.203 34.054 227.666 35.859 227.666 37.911C227.666 39.9503 227.203 41.7617 226.279 43.345C225.367 44.9283 224.1 46.1697 222.479 47.069C220.857 47.9557 218.983 48.399 216.855 48.399ZM216.855 44.314C218.007 44.314 219.014 44.048 219.876 43.516C220.737 42.984 221.408 42.243 221.89 41.293C222.371 40.3303 222.612 39.203 222.612 37.911C222.612 36.619 222.371 35.5043 221.89 34.567C221.408 33.617 220.737 32.8823 219.876 32.363C219.014 31.8437 218.007 31.584 216.855 31.584C215.715 31.584 214.708 31.8437 213.834 32.363C212.972 32.8823 212.301 33.617 211.82 34.567C211.338 35.5043 211.098 36.619 211.098 37.911C211.098 39.203 211.338 40.3303 211.82 41.293C212.301 42.243 212.972 42.984 213.834 43.516C214.708 44.048 215.715 44.314 216.855 44.314ZM255.018 37.911C255.018 39.1017 254.796 40.3113 254.353 41.54C253.91 42.7687 253.232 43.9087 252.32 44.96C251.421 45.9987 250.281 46.8347 248.9 47.468C247.519 48.1013 245.898 48.418 244.036 48.418C241.515 48.418 239.362 47.8037 237.576 46.575C235.803 45.3337 234.447 43.63 233.51 41.464C232.585 39.298 232.123 36.809 232.123 33.997C232.123 31.1723 232.585 28.677 233.51 26.511C234.447 24.345 235.803 22.6477 237.576 21.419C239.362 20.1903 241.515 19.576 244.036 19.576C246.126 19.576 247.912 19.975 249.394 20.773C250.876 21.571 252.06 22.597 252.947 23.851C253.834 25.105 254.429 26.416 254.733 27.784C254.923 28.582 255.018 29.342 255.018 30.064H249.983C249.983 29.6967 249.958 29.3167 249.907 28.924C249.768 27.9613 249.445 27.0873 248.938 26.302C248.444 25.504 247.785 24.877 246.962 24.421C246.139 23.9523 245.163 23.718 244.036 23.718C242.693 23.718 241.509 24.0917 240.483 24.839C239.47 25.5863 238.672 26.72 238.089 28.24C237.506 29.76 237.215 31.679 237.215 33.997C237.215 36.2897 237.506 38.2023 238.089 39.735C238.672 41.2677 239.47 42.414 240.483 43.174C241.509 43.934 242.693 44.314 244.036 44.314C244.999 44.314 245.847 44.1367 246.582 43.782C247.317 43.4273 247.937 42.9523 248.444 42.357C248.951 41.749 249.331 41.065 249.584 40.305C249.85 39.545 249.983 38.747 249.983 37.911H255.018ZM276.248 23.965H267.375L269.218 21.476V48H264.202V21.476L266.14 23.965H257.191V19.975H276.248V23.965ZM286.195 48H281.179V19.975H290.185C292.338 19.975 294.156 20.3867 295.638 21.21C297.132 22.0207 298.266 23.129 299.039 24.535C299.824 25.9283 300.217 27.4863 300.217 29.209C300.217 30.9443 299.824 32.534 299.039 33.978C298.253 35.422 297.107 36.581 295.6 37.455C294.105 38.3163 292.3 38.747 290.185 38.747H286.195V48ZM286.195 37.151L283.934 34.776H289.634C290.799 34.776 291.793 34.5543 292.617 34.111C293.44 33.655 294.067 33.0153 294.498 32.192C294.941 31.356 295.163 30.3617 295.163 29.209C295.163 28.0563 294.947 27.0937 294.517 26.321C294.099 25.5357 293.478 24.9467 292.655 24.554C291.831 24.1613 290.824 23.965 289.634 23.965H283.934L286.195 21.476V37.151ZM319.977 38.215C319.268 38.215 318.616 38.044 318.02 37.702C317.425 37.3473 316.95 36.8787 316.595 36.296C316.253 35.7007 316.082 35.042 316.082 34.32C316.082 33.598 316.253 32.9457 316.595 32.363C316.95 31.7803 317.425 31.318 318.02 30.976C318.616 30.6213 319.268 30.444 319.977 30.444C320.687 30.444 321.333 30.6213 321.915 30.976C322.511 31.318 322.979 31.7803 323.321 32.363C323.676 32.9457 323.853 33.598 323.853 34.32C323.853 35.042 323.676 35.7007 323.321 36.296C322.979 36.8787 322.511 37.3473 321.915 37.702C321.333 38.044 320.687 38.215 319.977 38.215ZM345.829 48L341.383 19.975H344.727L348.508 46.613L348.014 46.594L353.999 19.975H358.293L364.259 46.594L363.765 46.613L367.546 19.975H370.909L366.425 48H361.428L355.956 22.711H356.336L350.845 48H345.829ZM376.106 39.203V36.315H391.705L391.135 37.265C391.135 37.189 391.135 37.1193 391.135 37.056C391.135 36.98 391.135 36.9103 391.135 36.847C391.135 35.6817 390.888 34.6177 390.394 33.655C389.913 32.6797 389.191 31.9007 388.228 31.318C387.266 30.7353 386.075 30.444 384.656 30.444C383.225 30.444 381.965 30.748 380.875 31.356C379.786 31.964 378.937 32.8253 378.329 33.94C377.721 35.042 377.417 36.3593 377.417 37.892C377.417 39.45 377.709 40.7927 378.291 41.92C378.887 43.0473 379.729 43.915 380.818 44.523C381.908 45.131 383.2 45.435 384.694 45.435C385.758 45.435 386.683 45.3273 387.468 45.112C388.254 44.884 388.9 44.5863 389.406 44.219C389.926 43.839 390.318 43.4273 390.584 42.984C390.85 42.5407 391.009 42.0973 391.059 41.654H394.289C394.226 42.4647 393.973 43.269 393.529 44.067C393.086 44.865 392.459 45.5933 391.648 46.252C390.838 46.898 389.843 47.4173 388.665 47.81C387.487 48.2027 386.132 48.399 384.599 48.399C382.573 48.399 380.787 47.9557 379.241 47.069C377.696 46.1823 376.48 44.9537 375.593 43.383C374.719 41.8123 374.282 40.0073 374.282 37.968C374.282 35.9033 374.726 34.092 375.612 32.534C376.499 30.9633 377.721 29.7347 379.279 28.848C380.837 27.9613 382.617 27.518 384.618 27.518C386.658 27.518 388.425 27.9613 389.919 28.848C391.414 29.7347 392.567 30.9507 393.377 32.496C394.188 34.0287 394.593 35.7767 394.593 37.74C394.593 37.9427 394.587 38.2087 394.574 38.538C394.562 38.8673 394.543 39.089 394.517 39.203H376.106ZM410.629 48.38C409.071 48.38 407.614 48 406.259 47.24C404.903 46.4673 403.801 45.4097 402.953 44.067C402.117 42.7243 401.699 41.1917 401.699 39.469C401.699 39.431 401.699 39.3993 401.699 39.374C401.699 39.3487 401.699 39.317 401.699 39.279L404.017 39.222C404.017 39.2473 404.017 39.279 404.017 39.317C404.017 39.3423 404.017 39.3677 404.017 39.393C404.017 40.4823 404.302 41.4767 404.872 42.376C405.454 43.2753 406.214 43.991 407.152 44.523C408.089 45.055 409.096 45.321 410.173 45.321C411.959 45.321 413.441 44.713 414.619 43.497C415.809 42.2683 416.405 40.4 416.405 37.892C416.405 35.3713 415.816 33.5093 414.638 32.306C413.46 31.09 411.971 30.482 410.173 30.482C409.096 30.482 408.089 30.748 407.152 31.28C406.214 31.7993 405.454 32.5023 404.872 33.389C404.302 34.2757 404.017 35.27 404.017 36.372L401.699 36.296C401.699 34.5607 402.117 33.0343 402.953 31.717C403.801 30.3997 404.903 29.3737 406.259 28.639C407.614 27.8917 409.071 27.518 410.629 27.518C412.263 27.518 413.77 27.9233 415.151 28.734C416.531 29.532 417.64 30.7037 418.476 32.249C419.312 33.7943 419.73 35.6753 419.73 37.892C419.73 40.1467 419.318 42.0593 418.495 43.63C417.671 45.188 416.569 46.3723 415.189 47.183C413.808 47.981 412.288 48.38 410.629 48.38ZM400.768 48V18.303H404.017V48H400.768ZM433.631 48.38C432.415 48.38 431.288 48.2533 430.249 48C429.223 47.734 428.324 47.354 427.551 46.86C426.791 46.3533 426.196 45.7327 425.765 44.998C425.347 44.2633 425.138 43.421 425.138 42.471C425.138 42.3697 425.138 42.2683 425.138 42.167C425.138 42.053 425.138 41.958 425.138 41.882H428.387C428.387 41.958 428.387 42.0213 428.387 42.072C428.387 42.1227 428.387 42.1987 428.387 42.3C428.387 43.326 428.862 44.1113 429.812 44.656C430.762 45.188 432.061 45.454 433.707 45.454C434.721 45.454 435.626 45.3527 436.424 45.15C437.222 44.9473 437.849 44.637 438.305 44.219C438.774 43.801 439.008 43.2753 439.008 42.642C439.008 41.5907 438.514 40.8433 437.526 40.4C436.551 39.944 435.088 39.5513 433.137 39.222C432.111 39.0447 431.136 38.8167 430.211 38.538C429.287 38.2467 428.463 37.873 427.741 37.417C427.032 36.961 426.468 36.3973 426.05 35.726C425.645 35.042 425.442 34.225 425.442 33.275C425.442 32.0463 425.803 31.0077 426.525 30.159C427.26 29.2977 428.248 28.6453 429.489 28.202C430.731 27.746 432.111 27.518 433.631 27.518C435.101 27.518 436.456 27.7523 437.697 28.221C438.939 28.6897 439.933 29.3737 440.68 30.273C441.44 31.1597 441.82 32.2553 441.82 33.56C441.82 33.6107 441.82 33.674 441.82 33.75C441.82 33.8133 441.82 33.8767 441.82 33.94H438.59C438.59 33.8767 438.59 33.826 438.59 33.788C438.59 33.75 438.59 33.7057 438.59 33.655C438.59 32.9203 438.356 32.3187 437.887 31.85C437.419 31.3687 436.811 31.014 436.063 30.786C435.316 30.5453 434.518 30.425 433.669 30.425C432.871 30.425 432.086 30.5137 431.313 30.691C430.541 30.8557 429.901 31.1343 429.394 31.527C428.888 31.9197 428.634 32.458 428.634 33.142C428.634 33.826 428.869 34.377 429.337 34.795C429.819 35.2003 430.49 35.536 431.351 35.802C432.225 36.0553 433.251 36.2897 434.429 36.505C435.481 36.695 436.475 36.9357 437.412 37.227C438.35 37.5057 439.173 37.8667 439.882 38.31C440.604 38.7533 441.168 39.317 441.573 40.001C441.991 40.6723 442.2 41.4957 442.2 42.471C442.2 43.459 441.972 44.3203 441.516 45.055C441.073 45.7897 440.452 46.404 439.654 46.898C438.869 47.392 437.957 47.7593 436.918 48C435.892 48.2533 434.797 48.38 433.631 48.38ZM448.548 48V27.822H451.74V48H448.548ZM450.163 23.186C449.568 23.186 449.049 23.0213 448.605 22.692C448.175 22.35 447.959 21.8877 447.959 21.305C447.959 20.735 448.175 20.2853 448.605 19.956C449.049 19.614 449.568 19.443 450.163 19.443C450.759 19.443 451.272 19.614 451.702 19.956C452.133 20.2853 452.348 20.735 452.348 21.305C452.348 21.8877 452.133 22.35 451.702 22.692C451.272 23.0213 450.759 23.186 450.163 23.186ZM466.867 48.304C466.246 48.304 465.638 48.2343 465.043 48.095C464.448 47.9557 463.909 47.7087 463.428 47.354C462.959 46.9867 462.586 46.4737 462.307 45.815C462.028 45.1437 461.889 44.2823 461.889 43.231C461.889 42.965 461.889 42.6927 461.889 42.414C461.889 42.1227 461.889 41.8187 461.889 41.502V30.672H456.968V27.822H460.122C460.553 27.822 460.888 27.8093 461.129 27.784C461.37 27.746 461.541 27.6637 461.642 27.537C461.756 27.3977 461.826 27.1887 461.851 26.91C461.876 26.6187 461.889 26.2197 461.889 25.713V21.134H465.138V27.822H471.446V30.672H465.138V40.457C465.138 40.7357 465.138 41.008 465.138 41.274C465.138 41.54 465.138 41.787 465.138 42.015C465.138 43.0917 465.265 43.934 465.518 44.542C465.784 45.15 466.373 45.454 467.285 45.454C467.652 45.454 468.001 45.4223 468.33 45.359C468.659 45.2957 468.906 45.2323 469.071 45.169V47.981C468.856 48.057 468.552 48.1267 468.159 48.19C467.779 48.266 467.348 48.304 466.867 48.304ZM477.103 39.203V36.315H492.702L492.132 37.265C492.132 37.189 492.132 37.1193 492.132 37.056C492.132 36.98 492.132 36.9103 492.132 36.847C492.132 35.6817 491.885 34.6177 491.391 33.655C490.91 32.6797 490.188 31.9007 489.225 31.318C488.262 30.7353 487.072 30.444 485.653 30.444C484.222 30.444 482.961 30.748 481.872 31.356C480.783 31.964 479.934 32.8253 479.326 33.94C478.718 35.042 478.414 36.3593 478.414 37.892C478.414 39.45 478.705 40.7927 479.288 41.92C479.883 43.0473 480.726 43.915 481.815 44.523C482.904 45.131 484.196 45.435 485.691 45.435C486.755 45.435 487.68 45.3273 488.465 45.112C489.25 44.884 489.896 44.5863 490.403 44.219C490.922 43.839 491.315 43.4273 491.581 42.984C491.847 42.5407 492.005 42.0973 492.056 41.654H495.286C495.223 42.4647 494.969 43.269 494.526 44.067C494.083 44.865 493.456 45.5933 492.645 46.252C491.834 46.898 490.84 47.4173 489.662 47.81C488.484 48.2027 487.129 48.399 485.596 48.399C483.569 48.399 481.783 47.9557 480.238 47.069C478.693 46.1823 477.477 44.9537 476.59 43.383C475.716 41.8123 475.279 40.0073 475.279 37.968C475.279 35.9033 475.722 34.092 476.609 32.534C477.496 30.9633 478.718 29.7347 480.276 28.848C481.834 27.9613 483.614 27.518 485.615 27.518C487.654 27.518 489.421 27.9613 490.916 28.848C492.411 29.7347 493.563 30.9507 494.374 32.496C495.185 34.0287 495.59 35.7767 495.59 37.74C495.59 37.9427 495.584 38.2087 495.571 38.538C495.558 38.8673 495.539 39.089 495.514 39.203H477.103ZM514.894 48V30.672H510.486V27.822H514.894V25.219C514.894 24.3197 514.995 23.4963 515.198 22.749C515.413 21.989 515.717 21.3177 516.11 20.735C516.515 20.1523 517.003 19.6583 517.573 19.253C518.143 18.8477 518.789 18.5437 519.511 18.341C520.245 18.1257 521.043 18.018 521.905 18.018C522.525 18.018 523.019 18.056 523.387 18.132C523.754 18.208 524.001 18.2777 524.128 18.341V21.191C523.976 21.1403 523.722 21.0833 523.368 21.02C523.013 20.9567 522.633 20.925 522.228 20.925C521.366 20.925 520.663 21.058 520.119 21.324C519.587 21.59 519.175 21.9573 518.884 22.426C518.592 22.882 518.39 23.4013 518.276 23.984C518.174 24.5667 518.124 25.1747 518.124 25.808V27.822H524.014V30.672H518.124V48H514.894ZM537.426 48.361C535.399 48.361 533.607 47.9113 532.049 47.012C530.503 46.1 529.287 44.8587 528.401 43.288C527.527 41.7047 527.09 39.906 527.09 37.892C527.09 35.878 527.527 34.092 528.401 32.534C529.287 30.976 530.503 29.7537 532.049 28.867C533.607 27.9803 535.399 27.537 537.426 27.537C539.452 27.537 541.238 27.9803 542.784 28.867C544.342 29.7537 545.558 30.976 546.432 32.534C547.318 34.092 547.762 35.878 547.762 37.892C547.762 39.906 547.318 41.7047 546.432 43.288C545.558 44.8587 544.342 46.1 542.784 47.012C541.238 47.9113 539.452 48.361 537.426 48.361ZM537.426 45.397C538.819 45.397 540.048 45.0867 541.112 44.466C542.176 43.8453 543.005 42.9713 543.601 41.844C544.209 40.7167 544.513 39.3993 544.513 37.892C544.513 36.3847 544.209 35.08 543.601 33.978C543.005 32.8633 542.176 32.0083 541.112 31.413C540.048 30.805 538.819 30.501 537.426 30.501C536.045 30.501 534.816 30.805 533.74 31.413C532.676 32.0083 531.84 32.8633 531.232 33.978C530.636 35.08 530.339 36.3847 530.339 37.892C530.339 39.3993 530.636 40.7167 531.232 41.844C531.84 42.9713 532.676 43.8453 533.74 44.466C534.816 45.0867 536.045 45.397 537.426 45.397ZM553.946 48V27.822H557.176V34.016L556.112 33.636C556.188 32.8887 556.378 32.154 556.682 31.432C556.986 30.6973 557.404 30.0387 557.936 29.456C558.481 28.8607 559.159 28.392 559.969 28.05C560.78 27.6953 561.73 27.518 562.819 27.518C563.63 27.518 564.289 27.5877 564.795 27.727C565.315 27.8537 565.638 27.955 565.764 28.031L564.928 31.204C564.802 31.1153 564.542 31.0013 564.149 30.862C563.769 30.7227 563.225 30.653 562.515 30.653C561.464 30.653 560.59 30.843 559.893 31.223C559.209 31.603 558.665 32.1097 558.259 32.743C557.867 33.3637 557.588 34.0413 557.423 34.776C557.259 35.5107 557.176 36.239 557.176 36.961V48H553.946ZM588.995 48.304C588.375 48.304 587.767 48.2343 587.171 48.095C586.576 47.9557 586.038 47.7087 585.556 47.354C585.088 46.9867 584.714 46.4737 584.435 45.815C584.157 45.1437 584.017 44.2823 584.017 43.231C584.017 42.965 584.017 42.6927 584.017 42.414C584.017 42.1227 584.017 41.8187 584.017 41.502V30.672H579.096V27.822H582.25C582.681 27.822 583.017 27.8093 583.257 27.784C583.498 27.746 583.669 27.6637 583.77 27.537C583.884 27.3977 583.954 27.1887 583.979 26.91C584.005 26.6187 584.017 26.2197 584.017 25.713V21.134H587.266V27.822H593.574V30.672H587.266V40.457C587.266 40.7357 587.266 41.008 587.266 41.274C587.266 41.54 587.266 41.787 587.266 42.015C587.266 43.0917 587.393 43.934 587.646 44.542C587.912 45.15 588.501 45.454 589.413 45.454C589.781 45.454 590.129 45.4223 590.458 45.359C590.788 45.2957 591.035 45.2323 591.199 45.169V47.981C590.984 48.057 590.68 48.1267 590.287 48.19C589.907 48.266 589.477 48.304 588.995 48.304ZM613.314 48V40.495C613.314 40.1403 613.314 39.7223 613.314 39.241C613.314 38.747 613.314 38.253 613.314 37.759C613.314 37.2523 613.314 36.8217 613.314 36.467C613.314 34.529 612.896 33.066 612.06 32.078C611.236 31.09 609.925 30.596 608.127 30.596C606.923 30.596 605.866 30.8303 604.954 31.299C604.054 31.7677 603.351 32.4073 602.845 33.218C602.338 34.0287 602.085 34.947 602.085 35.973L600.033 35.346C600.033 33.902 600.406 32.591 601.154 31.413C601.914 30.2223 602.946 29.2787 604.251 28.582C605.568 27.8727 607.056 27.518 608.716 27.518C611.135 27.518 613.041 28.2463 614.435 29.703C615.841 31.1597 616.544 33.1737 616.544 35.745C616.544 36.4163 616.544 37.189 616.544 38.063C616.544 38.937 616.544 39.8553 616.544 40.818V48H613.314ZM598.855 48V18.303H602.085V48H598.855ZM624.344 39.203V36.315H639.943L639.373 37.265C639.373 37.189 639.373 37.1193 639.373 37.056C639.373 36.98 639.373 36.9103 639.373 36.847C639.373 35.6817 639.126 34.6177 638.632 33.655C638.151 32.6797 637.429 31.9007 636.466 31.318C635.504 30.7353 634.313 30.444 632.894 30.444C631.463 30.444 630.203 30.748 629.113 31.356C628.024 31.964 627.175 32.8253 626.567 33.94C625.959 35.042 625.655 36.3593 625.655 37.892C625.655 39.45 625.947 40.7927 626.529 41.92C627.125 43.0473 627.967 43.915 629.056 44.523C630.146 45.131 631.438 45.435 632.932 45.435C633.996 45.435 634.921 45.3273 635.706 45.112C636.492 44.884 637.138 44.5863 637.644 44.219C638.164 43.839 638.556 43.4273 638.822 42.984C639.088 42.5407 639.247 42.0973 639.297 41.654H642.527C642.464 42.4647 642.211 43.269 641.767 44.067C641.324 44.865 640.697 45.5933 639.886 46.252C639.076 46.898 638.081 47.4173 636.903 47.81C635.725 48.2027 634.37 48.399 632.837 48.399C630.811 48.399 629.025 47.9557 627.479 47.069C625.934 46.1823 624.718 44.9537 623.831 43.383C622.957 41.8123 622.52 40.0073 622.52 37.968C622.52 35.9033 622.964 34.092 623.85 32.534C624.737 30.9633 625.959 29.7347 627.517 28.848C629.075 27.9613 630.855 27.518 632.856 27.518C634.896 27.518 636.663 27.9613 638.157 28.848C639.652 29.7347 640.805 30.9507 641.615 32.496C642.426 34.0287 642.831 35.7767 642.831 37.74C642.831 37.9427 642.825 38.2087 642.812 38.538C642.8 38.8673 642.781 39.089 642.755 39.203H624.344ZM661.204 22.825L662.667 20.982V33.636L661.869 32.515H672.623V35.365H661.869L662.667 34.244V46.993L661.204 45.15H674.732V48H659.418V19.975H674.732V22.825H661.204ZM700.475 37.664C700.475 41.2993 699.626 43.9973 697.929 45.758C696.231 47.506 693.869 48.38 690.842 48.38C687.827 48.38 685.471 47.506 683.774 45.758C682.076 43.9973 681.228 41.2993 681.228 37.664C681.228 37.1067 681.228 36.5177 681.228 35.897C681.228 35.2637 681.228 34.5987 681.228 33.902V19.975H684.477V34.187C684.477 34.8457 684.477 35.46 684.477 36.03C684.477 36.6 684.477 37.1257 684.477 37.607C684.477 40.419 685.015 42.433 686.092 43.649C687.168 44.8523 688.752 45.454 690.842 45.454C692.944 45.454 694.534 44.8523 695.611 43.649C696.7 42.433 697.245 40.419 697.245 37.607V19.975H700.475V37.664ZM708.491 23.452C707.845 23.452 707.326 23.262 706.933 22.882C706.553 22.502 706.363 22.0017 706.363 21.381C706.363 20.7603 706.572 20.2473 706.99 19.842C707.408 19.424 708.01 19.215 708.795 19.215C709.618 19.215 710.239 19.4937 710.657 20.051C711.088 20.5957 711.303 21.2923 711.303 22.141C711.303 22.9517 711.113 23.68 710.733 24.326C710.353 24.9593 709.865 25.504 709.27 25.96C708.675 26.4033 708.06 26.7453 707.427 26.986L706.99 26.074C707.459 25.8967 707.896 25.6497 708.301 25.333C708.719 25.0163 709.055 24.6553 709.308 24.25C709.574 23.8447 709.707 23.4267 709.707 22.996C709.656 23.0847 709.523 23.186 709.308 23.3C709.093 23.4013 708.82 23.452 708.491 23.452ZM723.623 48.38C722.407 48.38 721.28 48.2533 720.241 48C719.215 47.734 718.316 47.354 717.543 46.86C716.783 46.3533 716.188 45.7327 715.757 44.998C715.339 44.2633 715.13 43.421 715.13 42.471C715.13 42.3697 715.13 42.2683 715.13 42.167C715.13 42.053 715.13 41.958 715.13 41.882H718.379C718.379 41.958 718.379 42.0213 718.379 42.072C718.379 42.1227 718.379 42.1987 718.379 42.3C718.379 43.326 718.854 44.1113 719.804 44.656C720.754 45.188 722.053 45.454 723.699 45.454C724.713 45.454 725.618 45.3527 726.416 45.15C727.214 44.9473 727.841 44.637 728.297 44.219C728.766 43.801 729 43.2753 729 42.642C729 41.5907 728.506 40.8433 727.518 40.4C726.543 39.944 725.08 39.5513 723.129 39.222C722.103 39.0447 721.128 38.8167 720.203 38.538C719.279 38.2467 718.455 37.873 717.733 37.417C717.024 36.961 716.46 36.3973 716.042 35.726C715.637 35.042 715.434 34.225 715.434 33.275C715.434 32.0463 715.795 31.0077 716.517 30.159C717.252 29.2977 718.24 28.6453 719.481 28.202C720.723 27.746 722.103 27.518 723.623 27.518C725.093 27.518 726.448 27.7523 727.689 28.221C728.931 28.6897 729.925 29.3737 730.672 30.273C731.432 31.1597 731.812 32.2553 731.812 33.56C731.812 33.6107 731.812 33.674 731.812 33.75C731.812 33.8133 731.812 33.8767 731.812 33.94H728.582C728.582 33.8767 728.582 33.826 728.582 33.788C728.582 33.75 728.582 33.7057 728.582 33.655C728.582 32.9203 728.348 32.3187 727.879 31.85C727.411 31.3687 726.803 31.014 726.055 30.786C725.308 30.5453 724.51 30.425 723.661 30.425C722.863 30.425 722.078 30.5137 721.305 30.691C720.533 30.8557 719.893 31.1343 719.386 31.527C718.88 31.9197 718.626 32.458 718.626 33.142C718.626 33.826 718.861 34.377 719.329 34.795C719.811 35.2003 720.482 35.536 721.343 35.802C722.217 36.0553 723.243 36.2897 724.421 36.505C725.473 36.695 726.467 36.9357 727.404 37.227C728.342 37.5057 729.165 37.8667 729.874 38.31C730.596 38.7533 731.16 39.317 731.565 40.001C731.983 40.6723 732.192 41.4957 732.192 42.471C732.192 43.459 731.964 44.3203 731.508 45.055C731.065 45.7897 730.444 46.404 729.646 46.898C728.861 47.392 727.949 47.7593 726.91 48C725.884 48.2533 724.789 48.38 723.623 48.38ZM769.339 38.253C769.339 39.3803 769.13 40.5393 768.712 41.73C768.294 42.908 767.661 44.0037 766.812 45.017C765.976 46.0177 764.919 46.8283 763.639 47.449C762.36 48.0697 760.859 48.38 759.136 48.38C756.768 48.38 754.754 47.7657 753.094 46.537C751.435 45.2957 750.168 43.592 749.294 41.426C748.433 39.26 748.002 36.7837 748.002 33.997C748.002 31.1977 748.433 28.7213 749.294 26.568C750.168 24.402 751.435 22.7047 753.094 21.476C754.754 20.2473 756.768 19.633 759.136 19.633C761.112 19.633 762.797 20.0383 764.19 20.849C765.584 21.6597 766.692 22.692 767.515 23.946C768.339 25.2 768.877 26.492 769.13 27.822C769.27 28.4933 769.339 29.1267 769.339 29.722H766.09C766.09 29.38 766.059 28.9873 765.995 28.544C765.843 27.48 765.476 26.4983 764.893 25.599C764.323 24.687 763.557 23.9587 762.594 23.414C761.632 22.8567 760.479 22.578 759.136 22.578C757.566 22.578 756.191 23.0087 755.013 23.87C753.848 24.7313 752.936 26.0107 752.277 27.708C751.631 29.4053 751.308 31.5017 751.308 33.997C751.308 36.4923 751.631 38.595 752.277 40.305C752.936 42.0023 753.848 43.288 755.013 44.162C756.191 45.0233 757.566 45.454 759.136 45.454C760.264 45.454 761.258 45.2513 762.119 44.846C762.981 44.428 763.703 43.877 764.285 43.193C764.881 42.4963 765.33 41.7237 765.634 40.875C765.938 40.0137 766.09 39.1397 766.09 38.253H769.339ZM784.847 48.361C782.821 48.361 781.028 47.9113 779.47 47.012C777.925 46.1 776.709 44.8587 775.822 43.288C774.948 41.7047 774.511 39.906 774.511 37.892C774.511 35.878 774.948 34.092 775.822 32.534C776.709 30.976 777.925 29.7537 779.47 28.867C781.028 27.9803 782.821 27.537 784.847 27.537C786.874 27.537 788.66 27.9803 790.205 28.867C791.763 29.7537 792.979 30.976 793.853 32.534C794.74 34.092 795.183 35.878 795.183 37.892C795.183 39.906 794.74 41.7047 793.853 43.288C792.979 44.8587 791.763 46.1 790.205 47.012C788.66 47.9113 786.874 48.361 784.847 48.361ZM784.847 45.397C786.241 45.397 787.469 45.0867 788.533 44.466C789.597 43.8453 790.427 42.9713 791.022 41.844C791.63 40.7167 791.934 39.3993 791.934 37.892C791.934 36.3847 791.63 35.08 791.022 33.978C790.427 32.8633 789.597 32.0083 788.533 31.413C787.469 30.805 786.241 30.501 784.847 30.501C783.467 30.501 782.238 30.805 781.161 31.413C780.097 32.0083 779.261 32.8633 778.653 33.978C778.058 35.08 777.76 36.3847 777.76 37.892C777.76 39.3993 778.058 40.7167 778.653 41.844C779.261 42.9713 780.097 43.8453 781.161 44.466C782.238 45.0867 783.467 45.397 784.847 45.397ZM815.808 48V38.329C815.808 37.7463 815.808 37.2713 815.808 36.904C815.808 36.524 815.808 36.163 815.808 35.821C815.808 34.7697 815.63 33.8513 815.276 33.066C814.921 32.2807 814.364 31.6727 813.604 31.242C812.844 30.8113 811.849 30.596 810.621 30.596C809.544 30.596 808.543 30.8747 807.619 31.432C806.707 31.9767 805.972 32.7177 805.415 33.655C804.87 34.5797 804.598 35.6183 804.598 36.771L802.755 36.068C802.755 34.4847 803.141 33.047 803.914 31.755C804.699 30.463 805.738 29.437 807.03 28.677C808.334 27.9043 809.753 27.518 811.286 27.518C812.844 27.518 814.205 27.8157 815.371 28.411C816.536 29.0063 817.435 29.8613 818.069 30.976C818.715 32.078 819.038 33.408 819.038 34.966C819.038 35.5233 819.038 36.1313 819.038 36.79C819.038 37.4487 819.038 38.063 819.038 38.633V48H815.808ZM801.368 48V27.822H804.598V48H801.368ZM833.527 48.38C832.311 48.38 831.183 48.2533 830.145 48C829.119 47.734 828.219 47.354 827.447 46.86C826.687 46.3533 826.091 45.7327 825.661 44.998C825.243 44.2633 825.034 43.421 825.034 42.471C825.034 42.3697 825.034 42.2683 825.034 42.167C825.034 42.053 825.034 41.958 825.034 41.882H828.283C828.283 41.958 828.283 42.0213 828.283 42.072C828.283 42.1227 828.283 42.1987 828.283 42.3C828.283 43.326 828.758 44.1113 829.708 44.656C830.658 45.188 831.956 45.454 833.603 45.454C834.616 45.454 835.522 45.3527 836.32 45.15C837.118 44.9473 837.745 44.637 838.201 44.219C838.669 43.801 838.904 43.2753 838.904 42.642C838.904 41.5907 838.41 40.8433 837.422 40.4C836.446 39.944 834.983 39.5513 833.033 39.222C832.007 39.0447 831.031 38.8167 830.107 38.538C829.182 38.2467 828.359 37.873 827.637 37.417C826.927 36.961 826.364 36.3973 825.946 35.726C825.54 35.042 825.338 34.225 825.338 33.275C825.338 32.0463 825.699 31.0077 826.421 30.159C827.155 29.2977 828.143 28.6453 829.385 28.202C830.626 27.746 832.007 27.518 833.527 27.518C834.996 27.518 836.351 27.7523 837.593 28.221C838.834 28.6897 839.828 29.3737 840.576 30.273C841.336 31.1597 841.716 32.2553 841.716 33.56C841.716 33.6107 841.716 33.674 841.716 33.75C841.716 33.8133 841.716 33.8767 841.716 33.94H838.486C838.486 33.8767 838.486 33.826 838.486 33.788C838.486 33.75 838.486 33.7057 838.486 33.655C838.486 32.9203 838.251 32.3187 837.783 31.85C837.314 31.3687 836.706 31.014 835.959 30.786C835.211 30.5453 834.413 30.425 833.565 30.425C832.767 30.425 831.981 30.5137 831.209 30.691C830.436 30.8557 829.796 31.1343 829.29 31.527C828.783 31.9197 828.53 32.458 828.53 33.142C828.53 33.826 828.764 34.377 829.233 34.795C829.714 35.2003 830.385 35.536 831.247 35.802C832.121 36.0553 833.147 36.2897 834.325 36.505C835.376 36.695 836.37 36.9357 837.308 37.227C838.245 37.5057 839.068 37.8667 839.778 38.31C840.5 38.7533 841.063 39.317 841.469 40.001C841.887 40.6723 842.096 41.4957 842.096 42.471C842.096 43.459 841.868 44.3203 841.412 45.055C840.968 45.7897 840.348 46.404 839.55 46.898C838.764 47.392 837.852 47.7593 836.814 48C835.788 48.2533 834.692 48.38 833.527 48.38ZM857.81 48.361C855.784 48.361 853.991 47.9113 852.433 47.012C850.888 46.1 849.672 44.8587 848.785 43.288C847.911 41.7047 847.474 39.906 847.474 37.892C847.474 35.878 847.911 34.092 848.785 32.534C849.672 30.976 850.888 29.7537 852.433 28.867C853.991 27.9803 855.784 27.537 857.81 27.537C859.837 27.537 861.623 27.9803 863.168 28.867C864.726 29.7537 865.942 30.976 866.816 32.534C867.703 34.092 868.146 35.878 868.146 37.892C868.146 39.906 867.703 41.7047 866.816 43.288C865.942 44.8587 864.726 46.1 863.168 47.012C861.623 47.9113 859.837 48.361 857.81 48.361ZM857.81 45.397C859.204 45.397 860.432 45.0867 861.496 44.466C862.56 43.8453 863.39 42.9713 863.985 41.844C864.593 40.7167 864.897 39.3993 864.897 37.892C864.897 36.3847 864.593 35.08 863.985 33.978C863.39 32.8633 862.56 32.0083 861.496 31.413C860.432 30.805 859.204 30.501 857.81 30.501C856.43 30.501 855.201 30.805 854.124 31.413C853.06 32.0083 852.224 32.8633 851.616 33.978C851.021 35.08 850.723 36.3847 850.723 37.892C850.723 39.3993 851.021 40.7167 851.616 41.844C852.224 42.9713 853.06 43.8453 854.124 44.466C855.201 45.0867 856.43 45.397 857.81 45.397ZM877.808 18.303V48H874.616V18.303H877.808ZM885.049 48V27.822H888.241V48H885.049ZM886.664 23.186C886.069 23.186 885.55 23.0213 885.106 22.692C884.676 22.35 884.46 21.8877 884.46 21.305C884.46 20.735 884.676 20.2853 885.106 19.956C885.55 19.614 886.069 19.443 886.664 19.443C887.26 19.443 887.773 19.614 888.203 19.956C888.634 20.2853 888.849 20.735 888.849 21.305C888.849 21.8877 888.634 22.35 888.203 22.692C887.773 23.0213 887.26 23.186 886.664 23.186ZM903.71 48.38C902.051 48.38 900.531 47.981 899.15 47.183C897.769 46.3723 896.667 45.188 895.844 43.63C895.021 42.0593 894.609 40.1467 894.609 37.892C894.609 35.6753 895.027 33.7943 895.863 32.249C896.699 30.7037 897.807 29.532 899.188 28.734C900.569 27.9233 902.076 27.518 903.71 27.518C905.268 27.518 906.725 27.8917 908.08 28.639C909.448 29.3737 910.55 30.3997 911.386 31.717C912.222 33.0343 912.64 34.5607 912.64 36.296C912.64 36.334 912.64 36.372 912.64 36.41C912.64 36.448 912.64 36.486 912.64 36.524L910.322 36.619C910.322 36.581 910.322 36.543 910.322 36.505C910.322 36.4543 910.322 36.41 910.322 36.372C910.322 35.27 910.031 34.2757 909.448 33.389C908.878 32.5023 908.124 31.7993 907.187 31.28C906.25 30.748 905.243 30.482 904.166 30.482C902.367 30.482 900.879 31.09 899.701 32.306C898.523 33.5093 897.934 35.3713 897.934 37.892C897.934 40.4 898.523 42.2683 899.701 43.497C900.892 44.713 902.38 45.321 904.166 45.321C905.293 45.321 906.319 45.0487 907.244 44.504C908.181 43.9593 908.929 43.231 909.486 42.319C910.043 41.3943 910.322 40.362 910.322 39.222L912.64 39.279C912.64 41.0017 912.241 42.5533 911.443 43.934C910.645 45.302 909.568 46.385 908.213 47.183C906.87 47.981 905.369 48.38 903.71 48.38ZM910.322 48V18.303H913.571V48H910.322ZM927.438 48.38C925.906 48.38 924.563 48.1393 923.41 47.658C922.27 47.1767 921.384 46.4863 920.75 45.587C920.117 44.675 919.8 43.5857 919.8 42.319C919.8 41.0017 920.142 39.906 920.826 39.032C921.51 38.1453 922.473 37.455 923.714 36.961C924.956 36.467 926.4 36.1377 928.046 35.973C930.529 35.7197 932.296 35.4727 933.347 35.232C934.399 34.9787 934.924 34.5733 934.924 34.016C934.924 34.0033 934.924 33.997 934.924 33.997C934.924 33.9843 934.924 33.9717 934.924 33.959C934.924 32.7937 934.449 31.926 933.499 31.356C932.549 30.7733 931.175 30.482 929.376 30.482C927.502 30.482 926.045 30.8113 925.006 31.47C923.968 32.116 923.448 33.1673 923.448 34.624H920.256C920.256 33.1167 920.643 31.8373 921.415 30.786C922.188 29.722 923.258 28.9113 924.626 28.354C926.007 27.7967 927.597 27.518 929.395 27.518C931.042 27.518 932.524 27.7713 933.841 28.278C935.171 28.772 936.223 29.513 936.995 30.501C937.781 31.4763 938.173 32.686 938.173 34.13C938.173 34.396 938.173 34.662 938.173 34.928C938.173 35.1813 938.173 35.441 938.173 35.707V44.2C938.173 44.6433 938.192 45.074 938.23 45.492C938.268 45.91 938.332 46.2773 938.42 46.594C938.534 46.974 938.661 47.2843 938.8 47.525C938.94 47.753 939.054 47.9113 939.142 48H935.893C935.83 47.9367 935.735 47.791 935.608 47.563C935.482 47.3223 935.361 47.0437 935.247 46.727C935.159 46.4737 935.089 46.157 935.038 45.777C934.988 45.3843 934.962 44.979 934.962 44.561L935.494 44.922C935.102 45.606 934.525 46.2077 933.765 46.727C933.018 47.2463 932.112 47.6517 931.048 47.943C929.984 48.2343 928.781 48.38 927.438 48.38ZM927.951 45.473C929.256 45.473 930.434 45.2767 931.485 44.884C932.537 44.4787 933.373 43.8833 933.993 43.098C934.614 42.3127 934.924 41.3373 934.924 40.172V36.163L935.646 37.379C934.836 37.6957 933.822 37.9553 932.606 38.158C931.403 38.348 930.143 38.5063 928.825 38.633C926.913 38.8103 925.469 39.146 924.493 39.64C923.531 40.134 923.049 40.9637 923.049 42.129C923.049 43.231 923.448 44.067 924.246 44.637C925.044 45.1943 926.279 45.473 927.951 45.473ZM952.109 48.304C951.488 48.304 950.88 48.2343 950.285 48.095C949.69 47.9557 949.151 47.7087 948.67 47.354C948.201 46.9867 947.828 46.4737 947.549 45.815C947.27 45.1437 947.131 44.2823 947.131 43.231C947.131 42.965 947.131 42.6927 947.131 42.414C947.131 42.1227 947.131 41.8187 947.131 41.502V30.672H942.21V27.822H945.364C945.795 27.822 946.13 27.8093 946.371 27.784C946.612 27.746 946.783 27.6637 946.884 27.537C946.998 27.3977 947.068 27.1887 947.093 26.91C947.118 26.6187 947.131 26.2197 947.131 25.713V21.134H950.38V27.822H956.688V30.672H950.38V40.457C950.38 40.7357 950.38 41.008 950.38 41.274C950.38 41.54 950.38 41.787 950.38 42.015C950.38 43.0917 950.507 43.934 950.76 44.542C951.026 45.15 951.615 45.454 952.527 45.454C952.894 45.454 953.243 45.4223 953.572 45.359C953.901 45.2957 954.148 45.2323 954.313 45.169V47.981C954.098 48.057 953.794 48.1267 953.401 48.19C953.021 48.266 952.59 48.304 952.109 48.304ZM962.345 39.203V36.315H977.944L977.374 37.265C977.374 37.189 977.374 37.1193 977.374 37.056C977.374 36.98 977.374 36.9103 977.374 36.847C977.374 35.6817 977.127 34.6177 976.633 33.655C976.152 32.6797 975.43 31.9007 974.467 31.318C973.505 30.7353 972.314 30.444 970.895 30.444C969.464 30.444 968.204 30.748 967.114 31.356C966.025 31.964 965.176 32.8253 964.568 33.94C963.96 35.042 963.656 36.3593 963.656 37.892C963.656 39.45 963.948 40.7927 964.53 41.92C965.126 43.0473 965.968 43.915 967.057 44.523C968.147 45.131 969.439 45.435 970.933 45.435C971.997 45.435 972.922 45.3273 973.707 45.112C974.493 44.884 975.139 44.5863 975.645 44.219C976.165 43.839 976.557 43.4273 976.823 42.984C977.089 42.5407 977.248 42.0973 977.298 41.654H980.528C980.465 42.4647 980.212 43.269 979.768 44.067C979.325 44.865 978.698 45.5933 977.887 46.252C977.077 46.898 976.082 47.4173 974.904 47.81C973.726 48.2027 972.371 48.399 970.838 48.399C968.812 48.399 967.026 47.9557 965.48 47.069C963.935 46.1823 962.719 44.9537 961.832 43.383C960.958 41.8123 960.521 40.0073 960.521 37.968C960.521 35.9033 960.965 34.092 961.851 32.534C962.738 30.9633 963.96 29.7347 965.518 28.848C967.076 27.9613 968.856 27.518 970.857 27.518C972.897 27.518 974.664 27.9613 976.158 28.848C977.653 29.7347 978.806 30.9507 979.616 32.496C980.427 34.0287 980.832 35.7767 980.832 37.74C980.832 37.9427 980.826 38.2087 980.813 38.538C980.801 38.8673 980.782 39.089 980.756 39.203H962.345ZM995.329 48.38C993.669 48.38 992.149 47.981 990.769 47.183C989.388 46.3723 988.286 45.188 987.463 43.63C986.639 42.0593 986.228 40.1467 986.228 37.892C986.228 35.6753 986.646 33.7943 987.482 32.249C988.318 30.7037 989.426 29.532 990.807 28.734C992.187 27.9233 993.695 27.518 995.329 27.518C996.887 27.518 998.343 27.8917 999.699 28.639C1001.07 29.3737 1002.17 30.3997 1003 31.717C1003.84 33.0343 1004.26 34.5607 1004.26 36.296C1004.26 36.334 1004.26 36.372 1004.26 36.41C1004.26 36.448 1004.26 36.486 1004.26 36.524L1001.94 36.619C1001.94 36.581 1001.94 36.543 1001.94 36.505C1001.94 36.4543 1001.94 36.41 1001.94 36.372C1001.94 35.27 1001.65 34.2757 1001.07 33.389C1000.5 32.5023 999.743 31.7993 998.806 31.28C997.868 30.748 996.861 30.482 995.785 30.482C993.986 30.482 992.498 31.09 991.32 32.306C990.142 33.5093 989.553 35.3713 989.553 37.892C989.553 40.4 990.142 42.2683 991.32 43.497C992.51 44.713 993.999 45.321 995.785 45.321C996.912 45.321 997.938 45.0487 998.863 44.504C999.8 43.9593 1000.55 43.231 1001.1 42.319C1001.66 41.3943 1001.94 40.362 1001.94 39.222L1004.26 39.279C1004.26 41.0017 1003.86 42.5533 1003.06 43.934C1002.26 45.302 1001.19 46.385 999.832 47.183C998.489 47.981 996.988 48.38 995.329 48.38ZM1001.94 48V18.303H1005.19V48H1001.94ZM1039.14 22.825H1031.05L1031.79 20.982V48H1028.56V20.982L1029.47 22.825H1021.22V19.975H1039.14V22.825ZM1048.5 48.38C1046.97 48.38 1045.63 48.1393 1044.47 47.658C1043.33 47.1767 1042.45 46.4863 1041.81 45.587C1041.18 44.675 1040.86 43.5857 1040.86 42.319C1040.86 41.0017 1041.21 39.906 1041.89 39.032C1042.57 38.1453 1043.54 37.455 1044.78 36.961C1046.02 36.467 1047.46 36.1377 1049.11 35.973C1051.59 35.7197 1053.36 35.4727 1054.41 35.232C1055.46 34.9787 1055.99 34.5733 1055.99 34.016C1055.99 34.0033 1055.99 33.997 1055.99 33.997C1055.99 33.9843 1055.99 33.9717 1055.99 33.959C1055.99 32.7937 1055.51 31.926 1054.56 31.356C1053.61 30.7733 1052.24 30.482 1050.44 30.482C1048.56 30.482 1047.11 30.8113 1046.07 31.47C1045.03 32.116 1044.51 33.1673 1044.51 34.624H1041.32C1041.32 33.1167 1041.71 31.8373 1042.48 30.786C1043.25 29.722 1044.32 28.9113 1045.69 28.354C1047.07 27.7967 1048.66 27.518 1050.46 27.518C1052.1 27.518 1053.59 27.7713 1054.9 28.278C1056.23 28.772 1057.29 29.513 1058.06 30.501C1058.84 31.4763 1059.24 32.686 1059.24 34.13C1059.24 34.396 1059.24 34.662 1059.24 34.928C1059.24 35.1813 1059.24 35.441 1059.24 35.707V44.2C1059.24 44.6433 1059.26 45.074 1059.29 45.492C1059.33 45.91 1059.39 46.2773 1059.48 46.594C1059.6 46.974 1059.72 47.2843 1059.86 47.525C1060 47.753 1060.12 47.9113 1060.21 48H1056.96C1056.89 47.9367 1056.8 47.791 1056.67 47.563C1056.54 47.3223 1056.42 47.0437 1056.31 46.727C1056.22 46.4737 1056.15 46.157 1056.1 45.777C1056.05 45.3843 1056.03 44.979 1056.03 44.561L1056.56 44.922C1056.16 45.606 1055.59 46.2077 1054.83 46.727C1054.08 47.2463 1053.18 47.6517 1052.11 47.943C1051.05 48.2343 1049.84 48.38 1048.5 48.38ZM1049.01 45.473C1050.32 45.473 1051.5 45.2767 1052.55 44.884C1053.6 44.4787 1054.44 43.8833 1055.06 43.098C1055.68 42.3127 1055.99 41.3373 1055.99 40.172V36.163L1056.71 37.379C1055.9 37.6957 1054.89 37.9553 1053.67 38.158C1052.47 38.348 1051.21 38.5063 1049.89 38.633C1047.98 38.8103 1046.53 39.146 1045.56 39.64C1044.59 40.134 1044.11 40.9637 1044.11 42.129C1044.11 43.231 1044.51 44.067 1045.31 44.637C1046.11 45.1943 1047.34 45.473 1049.01 45.473ZM1065.75 56.303V27.822H1068.98V56.303H1065.75ZM1075.61 48.38C1074.05 48.38 1072.59 48 1071.24 47.24C1069.88 46.4673 1068.78 45.4097 1067.93 44.067C1067.1 42.7243 1066.68 41.1917 1066.68 39.469C1066.68 39.431 1066.68 39.3993 1066.68 39.374C1066.68 39.3487 1066.68 39.317 1066.68 39.279L1069 39.222C1069 39.2473 1069 39.279 1069 39.317C1069 39.3423 1069 39.3677 1069 39.393C1069 40.4823 1069.28 41.4767 1069.85 42.376C1070.44 43.2753 1071.2 43.991 1072.13 44.523C1073.07 45.055 1074.08 45.321 1075.15 45.321C1076.94 45.321 1078.42 44.713 1079.6 43.497C1080.79 42.2683 1081.39 40.4 1081.39 37.892C1081.39 35.3713 1080.8 33.5093 1079.62 32.306C1078.44 31.09 1076.95 30.482 1075.15 30.482C1074.08 30.482 1073.07 30.748 1072.13 31.28C1071.2 31.7993 1070.44 32.5023 1069.85 33.389C1069.28 34.2757 1069 35.27 1069 36.372L1066.68 36.296C1066.68 34.5607 1067.1 33.0343 1067.93 31.717C1068.78 30.3997 1069.88 29.3737 1071.24 28.639C1072.59 27.8917 1074.05 27.518 1075.61 27.518C1077.24 27.518 1078.75 27.9233 1080.13 28.734C1081.51 29.532 1082.62 30.7037 1083.46 32.249C1084.29 33.7943 1084.71 35.6753 1084.71 37.892C1084.71 40.1467 1084.3 42.0593 1083.48 43.63C1082.65 45.188 1081.55 46.3723 1080.17 47.183C1078.79 47.981 1077.27 48.38 1075.61 48.38ZM1091.94 39.203V36.315H1107.54L1106.97 37.265C1106.97 37.189 1106.97 37.1193 1106.97 37.056C1106.97 36.98 1106.97 36.9103 1106.97 36.847C1106.97 35.6817 1106.73 34.6177 1106.23 33.655C1105.75 32.6797 1105.03 31.9007 1104.07 31.318C1103.1 30.7353 1101.91 30.444 1100.49 30.444C1099.06 30.444 1097.8 30.748 1096.71 31.356C1095.62 31.964 1094.77 32.8253 1094.17 33.94C1093.56 35.042 1093.25 36.3593 1093.25 37.892C1093.25 39.45 1093.55 40.7927 1094.13 41.92C1094.72 43.0473 1095.57 43.915 1096.66 44.523C1097.74 45.131 1099.04 45.435 1100.53 45.435C1101.6 45.435 1102.52 45.3273 1103.31 45.112C1104.09 44.884 1104.74 44.5863 1105.24 44.219C1105.76 43.839 1106.16 43.4273 1106.42 42.984C1106.69 42.5407 1106.85 42.0973 1106.9 41.654H1110.13C1110.06 42.4647 1109.81 43.269 1109.37 44.067C1108.92 44.865 1108.3 45.5933 1107.49 46.252C1106.67 46.898 1105.68 47.4173 1104.5 47.81C1103.32 48.2027 1101.97 48.399 1100.44 48.399C1098.41 48.399 1096.62 47.9557 1095.08 47.069C1093.53 46.1823 1092.32 44.9537 1091.43 43.383C1090.56 41.8123 1090.12 40.0073 1090.12 37.968C1090.12 35.9033 1090.56 34.092 1091.45 32.534C1092.34 30.9633 1093.56 29.7347 1095.12 28.848C1096.67 27.9613 1098.45 27.518 1100.46 27.518C1102.49 27.518 1104.26 27.9613 1105.76 28.848C1107.25 29.7347 1108.4 30.9507 1109.21 32.496C1110.02 34.0287 1110.43 35.7767 1110.43 37.74C1110.43 37.9427 1110.42 38.2087 1110.41 38.538C1110.4 38.8673 1110.38 39.089 1110.35 39.203H1091.94ZM1130.27 48H1127.02V19.975H1134.88C1137.05 19.975 1138.85 20.3803 1140.28 21.191C1141.71 21.989 1142.78 23.0657 1143.49 24.421C1144.2 25.7763 1144.55 27.2837 1144.55 28.943C1144.55 30.6023 1144.19 32.135 1143.45 33.541C1142.73 34.947 1141.65 36.0807 1140.2 36.942C1138.77 37.7907 1137 38.215 1134.88 38.215H1130.27V48ZM1130.27 37.018L1128.8 35.365H1134.48C1136 35.365 1137.26 35.099 1138.26 34.567C1139.28 34.0223 1140.03 33.2687 1140.53 32.306C1141.03 31.3433 1141.29 30.2223 1141.29 28.943C1141.29 27.651 1141.04 26.549 1140.56 25.637C1140.08 24.725 1139.34 24.0283 1138.34 23.547C1137.34 23.0657 1136.05 22.825 1134.48 22.825H1128.8L1130.27 20.982V37.018ZM1150.24 48V27.822H1153.47V34.016L1152.41 33.636C1152.48 32.8887 1152.67 32.154 1152.98 31.432C1153.28 30.6973 1153.7 30.0387 1154.23 29.456C1154.78 28.8607 1155.45 28.392 1156.26 28.05C1157.08 27.6953 1158.03 27.518 1159.11 27.518C1159.93 27.518 1160.58 27.5877 1161.09 27.727C1161.61 27.8537 1161.93 27.955 1162.06 28.031L1161.22 31.204C1161.1 31.1153 1160.84 31.0013 1160.44 30.862C1160.06 30.7227 1159.52 30.653 1158.81 30.653C1157.76 30.653 1156.89 30.843 1156.19 31.223C1155.5 31.603 1154.96 32.1097 1154.55 32.743C1154.16 33.3637 1153.88 34.0413 1153.72 34.776C1153.55 35.5107 1153.47 36.239 1153.47 36.961V48H1150.24ZM1175.86 48.361C1173.83 48.361 1172.04 47.9113 1170.48 47.012C1168.93 46.1 1167.72 44.8587 1166.83 43.288C1165.96 41.7047 1165.52 39.906 1165.52 37.892C1165.52 35.878 1165.96 34.092 1166.83 32.534C1167.72 30.976 1168.93 29.7537 1170.48 28.867C1172.04 27.9803 1173.83 27.537 1175.86 27.537C1177.88 27.537 1179.67 27.9803 1181.21 28.867C1182.77 29.7537 1183.99 30.976 1184.86 32.534C1185.75 34.092 1186.19 35.878 1186.19 37.892C1186.19 39.906 1185.75 41.7047 1184.86 43.288C1183.99 44.8587 1182.77 46.1 1181.21 47.012C1179.67 47.9113 1177.88 48.361 1175.86 48.361ZM1175.86 45.397C1177.25 45.397 1178.48 45.0867 1179.54 44.466C1180.61 43.8453 1181.44 42.9713 1182.03 41.844C1182.64 40.7167 1182.94 39.3993 1182.94 37.892C1182.94 36.3847 1182.64 35.08 1182.03 33.978C1181.44 32.8633 1180.61 32.0083 1179.54 31.413C1178.48 30.805 1177.25 30.501 1175.86 30.501C1174.48 30.501 1173.25 30.805 1172.17 31.413C1171.11 32.0083 1170.27 32.8633 1169.66 33.978C1169.07 35.08 1168.77 36.3847 1168.77 37.892C1168.77 39.3993 1169.07 40.7167 1169.66 41.844C1170.27 42.9713 1171.11 43.8453 1172.17 44.466C1173.25 45.0867 1174.48 45.397 1175.86 45.397ZM1207.77 27.822L1201 48H1196.77L1189.85 27.822H1193.19L1199.14 46.29H1198.63L1204.42 27.822H1207.77ZM1213.15 48V27.822H1216.34V48H1213.15ZM1214.77 23.186C1214.17 23.186 1213.65 23.0213 1213.21 22.692C1212.78 22.35 1212.56 21.8877 1212.56 21.305C1212.56 20.735 1212.78 20.2853 1213.21 19.956C1213.65 19.614 1214.17 19.443 1214.77 19.443C1215.36 19.443 1215.88 19.614 1216.31 19.956C1216.74 20.2853 1216.95 20.735 1216.95 21.305C1216.95 21.8877 1216.74 22.35 1216.31 22.692C1215.88 23.0213 1215.36 23.186 1214.77 23.186ZM1231.81 48.38C1230.15 48.38 1228.63 47.981 1227.25 47.183C1225.87 46.3723 1224.77 45.188 1223.95 43.63C1223.12 42.0593 1222.71 40.1467 1222.71 37.892C1222.71 35.6753 1223.13 33.7943 1223.97 32.249C1224.8 30.7037 1225.91 29.532 1227.29 28.734C1228.67 27.9233 1230.18 27.518 1231.81 27.518C1233.37 27.518 1234.83 27.8917 1236.18 28.639C1237.55 29.3737 1238.65 30.3997 1239.49 31.717C1240.33 33.0343 1240.74 34.5607 1240.74 36.296C1240.74 36.334 1240.74 36.372 1240.74 36.41C1240.74 36.448 1240.74 36.486 1240.74 36.524L1238.43 36.619C1238.43 36.581 1238.43 36.543 1238.43 36.505C1238.43 36.4543 1238.43 36.41 1238.43 36.372C1238.43 35.27 1238.13 34.2757 1237.55 33.389C1236.98 32.5023 1236.23 31.7993 1235.29 31.28C1234.35 30.748 1233.35 30.482 1232.27 30.482C1230.47 30.482 1228.98 31.09 1227.8 32.306C1226.63 33.5093 1226.04 35.3713 1226.04 37.892C1226.04 40.4 1226.63 42.2683 1227.8 43.497C1229 44.713 1230.48 45.321 1232.27 45.321C1233.4 45.321 1234.42 45.0487 1235.35 44.504C1236.28 43.9593 1237.03 43.231 1237.59 42.319C1238.15 41.3943 1238.43 40.362 1238.43 39.222L1240.74 39.279C1240.74 41.0017 1240.34 42.5533 1239.55 43.934C1238.75 45.302 1237.67 46.385 1236.32 47.183C1234.97 47.981 1233.47 48.38 1231.81 48.38ZM1238.43 48V18.303H1241.67V48H1238.43ZM1249.54 39.203V36.315H1265.14L1264.57 37.265C1264.57 37.189 1264.57 37.1193 1264.57 37.056C1264.57 36.98 1264.57 36.9103 1264.57 36.847C1264.57 35.6817 1264.32 34.6177 1263.83 33.655C1263.34 32.6797 1262.62 31.9007 1261.66 31.318C1260.7 30.7353 1259.51 30.444 1258.09 30.444C1256.66 30.444 1255.4 30.748 1254.31 31.356C1253.22 31.964 1252.37 32.8253 1251.76 33.94C1251.15 35.042 1250.85 36.3593 1250.85 37.892C1250.85 39.45 1251.14 40.7927 1251.72 41.92C1252.32 43.0473 1253.16 43.915 1254.25 44.523C1255.34 45.131 1256.63 45.435 1258.13 45.435C1259.19 45.435 1260.11 45.3273 1260.9 45.112C1261.69 44.884 1262.33 44.5863 1262.84 44.219C1263.36 43.839 1263.75 43.4273 1264.02 42.984C1264.28 42.5407 1264.44 42.0973 1264.49 41.654H1267.72C1267.66 42.4647 1267.4 43.269 1266.96 44.067C1266.52 44.865 1265.89 45.5933 1265.08 46.252C1264.27 46.898 1263.27 47.4173 1262.1 47.81C1260.92 48.2027 1259.56 48.399 1258.03 48.399C1256 48.399 1254.22 47.9557 1252.67 47.069C1251.13 46.1823 1249.91 44.9537 1249.02 43.383C1248.15 41.8123 1247.71 40.0073 1247.71 37.968C1247.71 35.9033 1248.16 34.092 1249.04 32.534C1249.93 30.9633 1251.15 29.7347 1252.71 28.848C1254.27 27.9613 1256.05 27.518 1258.05 27.518C1260.09 27.518 1261.86 27.9613 1263.35 28.848C1264.85 29.7347 1266 30.9507 1266.81 32.496C1267.62 34.0287 1268.02 35.7767 1268.02 37.74C1268.02 37.9427 1268.02 38.2087 1268.01 38.538C1267.99 38.8673 1267.97 39.089 1267.95 39.203H1249.54ZM1274.2 48V27.822H1277.43V34.016L1276.37 33.636C1276.44 32.8887 1276.63 32.154 1276.94 31.432C1277.24 30.6973 1277.66 30.0387 1278.19 29.456C1278.73 28.8607 1279.41 28.392 1280.22 28.05C1281.03 27.6953 1281.98 27.518 1283.07 27.518C1283.88 27.518 1284.54 27.5877 1285.05 27.727C1285.57 27.8537 1285.89 27.955 1286.02 28.031L1285.18 31.204C1285.05 31.1153 1284.79 31.0013 1284.4 30.862C1284.02 30.7227 1283.48 30.653 1282.77 30.653C1281.72 30.653 1280.84 30.843 1280.15 31.223C1279.46 31.603 1278.92 32.1097 1278.51 32.743C1278.12 33.3637 1277.84 34.0413 1277.68 34.776C1277.51 35.5107 1277.43 36.239 1277.43 36.961V48H1274.2Z" fill="black"/>
</svg>
